<?xml version="1.0" encoding="UTF-8"?>
<svg xmlns="http://www.w3.org/2000/svg" xmlns:xlink="http://www.w3.org/1999/xlink" width="48pt" height="48pt" viewBox="0 0 48 48" version="1.1">
<g id="surface1270608">
<path style="fill-rule:nonzero;fill:rgb(89.803922%,45.09804%,45.09804%);fill-opacity:1;stroke-width:10;stroke-linecap:butt;stroke-linejoin:round;stroke:rgb(100%,100%,100%);stroke-opacity:1;stroke-miterlimit:10;" d="M 162.919024 97.271978 C 164.355794 99.064237 164.355794 101.582287 162.919024 103.004245 L 158.268037 107.670043 L 142.493194 91.8952 L 147.158993 87.244214 C 148.951252 85.807444 151.45449 85.807444 152.89126 87.244214 L 162.919024 97.271978 " transform="matrix(0.263721,0,0,0.263721,1.32,1.32)"/>
<path style="fill-rule:nonzero;fill:rgb(100%,59.607846%,0%);fill-opacity:1;stroke-width:10;stroke-linecap:butt;stroke-linejoin:round;stroke:rgb(100%,100%,100%);stroke-opacity:1;stroke-miterlimit:10;" d="M 106.144401 159.630747 L 90.443618 143.929964 L 134.524307 99.834464 L 150.239901 115.550059 Z M 106.144401 159.630747 " transform="matrix(0.263721,0,0,0.263721,1.32,1.32)"/>
<path style="fill-rule:nonzero;fill:rgb(69.01961%,74.509805%,77.254903%);fill-opacity:1;stroke-width:10;stroke-linecap:butt;stroke-linejoin:round;stroke:rgb(100%,100%,100%);stroke-opacity:1;stroke-miterlimit:10;" d="M 134.524307 99.834464 L 142.493194 91.8952 L 158.268037 107.670043 L 150.239901 115.550059 Z M 134.524307 99.834464 " transform="matrix(0.263721,0,0,0.263721,1.32,1.32)"/>
<path style="fill-rule:nonzero;fill:rgb(100%,75.686276%,2.745098%);fill-opacity:1;stroke-width:10;stroke-linecap:butt;stroke-linejoin:round;stroke:rgb(100%,100%,100%);stroke-opacity:1;stroke-miterlimit:10;" d="M 106.144401 159.630747 L 95.731524 162.296918 L 87.821884 154.40209 L 90.443618 143.929964 Z M 106.144401 159.630747 " transform="matrix(0.263721,0,0,0.263721,1.32,1.32)"/>
<path style="fill-rule:nonzero;fill:rgb(21.568628%,27.843139%,30.980393%);fill-opacity:1;stroke-width:10;stroke-linecap:butt;stroke-linejoin:round;stroke:rgb(100%,100%,100%);stroke-opacity:1;stroke-miterlimit:10;" d="M 95.731524 162.296918 L 85.170525 164.992712 L 87.821884 154.40209 Z M 95.731524 162.296918 " transform="matrix(0.263721,0,0,0.263721,1.32,1.32)"/>
<path style="fill-rule:nonzero;fill:rgb(40.392157%,22.745098%,71.764708%);fill-opacity:1;stroke-width:10;stroke-linecap:butt;stroke-linejoin:round;stroke:rgb(100%,100%,100%);stroke-opacity:1;stroke-miterlimit:10;" d="M 150.506518 132.583927 C 150.506518 142.478382 142.478382 150.506518 132.583927 150.506518 L 39.416074 150.506518 C 29.521619 150.506518 21.493483 142.478382 21.493483 132.583927 L 21.493483 39.416074 C 21.493483 29.521619 29.521619 21.493483 39.416074 21.493483 L 132.583927 21.493483 C 142.478382 21.493483 150.506518 29.521619 150.506518 39.416074 Z M 150.506518 132.583927 " transform="matrix(0.263721,0,0,0.263721,1.32,1.32)"/>
<path style="fill-rule:nonzero;fill:rgb(100%,100%,100%);fill-opacity:1;stroke-width:10;stroke-linecap:butt;stroke-linejoin:round;stroke:rgb(100%,100%,100%);stroke-opacity:1;stroke-miterlimit:10;" d="M 121.830372 103.552291 C 121.830372 111.980352 119.253074 118.29029 114.098477 122.556163 C 108.899444 126.747975 101.271234 128.925348 91.124973 128.999408 L 53.754148 128.999408 L 53.754148 43.000593 L 87.259026 43.000593 C 97.968144 43.000593 104.278082 45.726012 109.862228 49.769704 C 115.461186 53.828208 118.245853 59.73822 118.245853 67.44049 C 118.245853 71.884108 117.253446 75.675995 115.26863 78.830964 C 111.980352 83.778192 108.321774 85.111277 108.321774 85.111277 C 112.661707 86.28143 116.024045 88.503239 118.36435 91.732268 C 120.689843 94.961296 121.830372 98.901304 121.830372 103.552291 Z M 75.246446 77.038705 C 75.246446 77.038705 90.191813 77.038705 90.473243 77.038705 C 95.92408 77.038705 100.338074 72.639523 100.338074 67.188685 C 100.338074 61.737848 95.92408 57.338666 90.473243 57.338666 C 90.191813 57.338666 75.246446 57.338666 75.246446 57.338666 Z M 103.922592 103.922592 C 103.922592 97.968144 99.108673 93.169037 93.169037 93.169037 L 75.246446 93.169037 L 75.246446 114.661335 L 93.169037 114.661335 C 99.108673 114.661335 103.922592 109.862228 103.922592 103.922592 Z M 103.922592 103.922592 " transform="matrix(0.263721,0,0,0.263721,1.32,1.32)"/>
<path style=" stroke:none;fill-rule:nonzero;fill:rgb(40.392157%,22.745098%,71.764708%);fill-opacity:1;" d="M 41.011719 36.285156 C 41.011719 38.894531 38.894531 41.011719 36.285156 41.011719 L 11.714844 41.011719 C 9.105469 41.011719 6.988281 38.894531 6.988281 36.285156 L 6.988281 11.714844 C 6.988281 9.105469 9.105469 6.988281 11.714844 6.988281 L 36.285156 6.988281 C 38.894531 6.988281 41.011719 9.105469 41.011719 11.714844 Z M 41.011719 36.285156 "/>
<path style=" stroke:none;fill-rule:nonzero;fill:rgb(100%,100%,100%);fill-opacity:1;" d="M 32.535156 25.511719 C 31.917969 24.660156 31.03125 24.074219 29.886719 23.765625 C 29.886719 23.765625 30.851562 23.414062 31.71875 22.109375 C 32.242188 21.277344 32.503906 20.277344 32.503906 19.105469 C 32.503906 17.074219 31.769531 15.515625 30.292969 14.445312 C 28.820312 13.378906 27.15625 12.660156 24.332031 12.660156 L 15.496094 12.660156 L 15.496094 35.339844 L 25.351562 35.339844 C 28.027344 35.320312 30.039062 34.746094 31.410156 33.640625 C 32.769531 32.515625 33.449219 30.851562 33.449219 28.628906 C 33.449219 27.402344 33.148438 26.363281 32.535156 25.511719 Z M 21.164062 16.441406 C 21.164062 16.441406 25.105469 16.441406 25.179688 16.441406 C 26.617188 16.441406 27.78125 17.601562 27.78125 19.039062 C 27.78125 20.476562 26.617188 21.636719 25.179688 21.636719 C 25.105469 21.636719 21.164062 21.636719 21.164062 21.636719 Z M 25.890625 31.558594 L 21.164062 31.558594 L 21.164062 25.890625 L 25.890625 25.890625 C 27.457031 25.890625 28.726562 27.15625 28.726562 28.726562 C 28.726562 30.292969 27.457031 31.558594 25.890625 31.558594 Z M 25.890625 31.558594 "/>
<path style=" stroke:none;fill-rule:nonzero;fill:rgb(89.803922%,45.09804%,45.09804%);fill-opacity:1;" d="M 44.285156 26.972656 L 41.640625 24.328125 C 41.261719 23.949219 40.601562 23.949219 40.128906 24.328125 L 38.898438 25.554688 L 43.058594 29.714844 L 44.285156 28.484375 C 44.664062 28.109375 44.664062 27.445312 44.285156 26.972656 "/>
<path style=" stroke:none;fill-rule:nonzero;fill:rgb(100%,59.607846%,0%);fill-opacity:1;" d="M 25.171875 39.277344 L 36.796875 27.648438 L 40.941406 31.792969 L 29.3125 43.417969 Z M 25.171875 39.277344 "/>
<path style=" stroke:none;fill-rule:nonzero;fill:rgb(69.01961%,74.509805%,77.254903%);fill-opacity:1;" d="M 36.796875 27.648438 L 38.898438 25.554688 L 43.058594 29.714844 L 40.941406 31.792969 Z M 36.796875 27.648438 "/>
<path style=" stroke:none;fill-rule:nonzero;fill:rgb(100%,75.686276%,2.745098%);fill-opacity:1;" d="M 25.171875 39.277344 L 24.480469 42.039062 L 26.566406 44.121094 L 29.3125 43.417969 Z M 25.171875 39.277344 "/>
<path style=" stroke:none;fill-rule:nonzero;fill:rgb(21.568628%,27.843139%,30.980393%);fill-opacity:1;" d="M 24.480469 42.039062 L 23.78125 44.832031 L 26.566406 44.121094 Z M 24.480469 42.039062 "/>
</g>
</svg>
